<?xml version="1.0" encoding="UTF-8"?>
<svg width="32" height="32" version="1.1" viewBox="0 0 32 32" xmlns="http://www.w3.org/2000/svg" xmlns:cc="http://creativecommons.org/ns#" xmlns:dc="http://purl.org/dc/elements/1.1/" xmlns:rdf="http://www.w3.org/1999/02/22-rdf-syntax-ns#">
 <metadata>
  <rdf:RDF>
   <cc:Work rdf:about="">
    <dc:format>image/svg+xml</dc:format>
    <dc:type rdf:resource="http://purl.org/dc/dcmitype/StillImage"/>
    <dc:title/>
   </cc:Work>
  </rdf:RDF>
 </metadata>
 <g fill="#fff" stroke="#000" stroke-linecap="square" stroke-linejoin="round" stroke-width="2">
  <path d="m5 3 22-4e-7c1 0 2 1 2 2v22c0 1-1 2-2 2l-22 1e-6c-1 0-2-1-2-2v-22c0-1 1-2 2-2z"/>
  <path d="m24 19-5-4e-3v4c-8e-6 1-8e-6 1-1 1l-4 4e-3c-1 9e-4 -1-3e-6 -1-1v-4h-5c3-4 5-8 8-12 3 4 5 8 8 12z"/>
 </g>
</svg>
